<?xml version="1.0" encoding="UTF-8"?>
<svg width="70" height="100" version="1.1" viewBox="0 0 18.520834 26.458334" xmlns="http://www.w3.org/2000/svg" xmlns:cc="http://creativecommons.org/ns#" xmlns:dc="http://purl.org/dc/elements/1.1/" xmlns:rdf="http://www.w3.org/1999/02/22-rdf-syntax-ns#">
    <metadata>
        <rdf:RDF>
            <cc:Work rdf:about="">
                <dc:format>image/svg+xml</dc:format>
                <dc:type rdf:resource="http://purl.org/dc/dcmitype/StillImage" />
                <dc:title />
            </cc:Work>
        </rdf:RDF>
    </metadata>
    <g display="none">
        <path transform="translate(0 -270.54)" d="m2.6458 294.35-2.6458 2.6458h13.229l-2.6458-2.6458h-7.9375" fill="#fff" />
    </g>
    <g display="none">
        <path transform="translate(0 -270.54)" d="m10.583 285.36 2.6458-1.3229v12.7c-0.88194-0.88195-2.6458-2.6458-2.6458-2.6458v-8.7312" fill="#fff" />
    </g>
    <g>
        <path transform="translate(0 -270.54)" d="m10.583 273.45 2.6458-2.6458v12.7l-2.6458-1.3229v-8.7312" fill="#fff" />
    </g>
    <g display="none">
        <path transform="translate(0 -270.54)" d="m2.6458 273.19-2.6458-2.6458h13.229l-2.6458 2.6458h-7.9375" fill="#fff" />
    </g>
    <g display="none">
        <path transform="translate(0 -270.54)" d="m2.6458 273.45-2.6458-2.6458v12.7l2.6458-1.3229v-8.7312" fill="#fff" />
    </g>
    <g display="none">
        <path transform="translate(0 -270.54)" d="m2.6458 285.36-2.6458-1.3229v12.7l2.6458-2.6458v-8.7312" display="inline" fill="#fff" />
    </g>
    <g display="none">
        <path transform="translate(0 -270.54)" d="m2.6458 282.45h7.9375l2.6458 1.3229-2.6458 1.3229h-7.9375l-2.6458-1.3229 2.6458-1.3229" fill="#fff" />
    </g>
    <g display="none">
        <rect transform="translate(0 -270.54)" x="14.552" y="293.03" width="2.6458" height="2.6458" ry=".2646" fill="#fff" />
    </g>
</svg>
